HIERARCHY
ROOT Hips
{
	OFFSET 0.00000 0.00000 0.00000
	CHANNELS 6 Xposition Yposition Zposition Zrotation Yrotation Xrotation 
	JOINT RightUpLegDummy
	{
		OFFSET 0 0 0
		CHANNELS 3 Zrotation Yrotation Xrotation
		JOINT RightUpLeg
		{
			OFFSET -3.52197 -3.41223 0.04002
			CHANNELS 3 Zrotation Yrotation Xrotation
			JOINT RightLeg
			{
				OFFSET 0.00006 -17.42390 1.60435
				CHANNELS 3 Zrotation Yrotation Xrotation
				JOINT RightFoot
				{
					OFFSET 0.06153 -16.50078 -1.63901
					CHANNELS 3 Zrotation Yrotation Xrotation
					JOINT RightToes
					{
						OFFSET 0.00298 -1.73825 3.34613
						CHANNELS 3 Zrotation Yrotation Xrotation
						End Site
						{
							OFFSET 0.00480 -0.05416 3.85043
						}
					}
				}
			}
		}
	}
	JOINT SpineDummy
	{
		OFFSET 0 0 0
		CHANNELS 3 Zrotation Yrotation Xrotation
		JOINT Spine
		{
			OFFSET 0.00000 4.68130 0.00000
			CHANNELS 3 Zrotation Yrotation Xrotation
			JOINT Spine1
			{
				OFFSET -0.00000 10.10138 0.05002
				CHANNELS 3 Zrotation Yrotation Xrotation
				JOINT HEadDummy
				{
					OFFSET 0 0 0
					CHANNELS 3 Zrotation Yrotation Xrotation
					JOINT Head
					{
						OFFSET -0.00000 3.43865 0.00438
						CHANNELS 3 Zrotation Yrotation Xrotation
						End Site
						{
							OFFSET -0.11417 5.02924 0.98962
						}
					}
				}
				JOINT LeftShoulder1Dummy
				{
					OFFSET 0 0 0
					CHANNELS 3 Zrotation Yrotation Xrotation
					JOINT LeftShoulder1
					{
						OFFSET 3.53937 -0.14262 -0.08662
						CHANNELS 3 Zrotation Yrotation Xrotation
						JOINT LeftArm
						{
							OFFSET 4.04833 -0.00133 0.12681
							CHANNELS 3 Zrotation Yrotation Xrotation
							JOINT LeftForeArm
							{
								OFFSET 10.33880 -0.01036 -0.55515
								CHANNELS 3 Zrotation Yrotation Xrotation
								JOINT LeftHand
								{
									OFFSET 8.69677 0.07543 0.40060
									CHANNELS 3 Zrotation Yrotation Xrotation
									End Site
									{
										OFFSET 5.28377 -0.21905 0.59205
									}
								}
							}
						}
					}
				}
				JOINT RightShoulderDummy
				{
					OFFSET 0 0 0
					CHANNELS 3 Zrotation Yrotation Xrotation
					JOINT RightShoulder
					{
						OFFSET -3.53937 -0.14262 -0.08660
						CHANNELS 3 Zrotation Yrotation Xrotation
						JOINT RightArm
						{
							OFFSET -4.04833 -0.00133 0.12683
							CHANNELS 3 Zrotation Yrotation Xrotation
							JOINT RightForeArm
							{
								OFFSET -10.37987 -0.01039 -0.55511
								CHANNELS 3 Zrotation Yrotation Xrotation
								JOINT RightHand
								{
									OFFSET -8.67398 0.07538 0.40058
									CHANNELS 3 Zrotation Yrotation Xrotation
									End Site
									{
										OFFSET -5.24810 -0.21916 0.59204
									}
								}
							}
						}
					}
				}
			}
		}
	}
	JOINT LeftUpLegDummy
	{
		OFFSET 0 0 0
		CHANNELS 3 Zrotation Yrotation Xrotation
		JOINT LeftUpLeg
		{
			OFFSET 3.52197 -3.41223 0.04002
			CHANNELS 3 Zrotation Yrotation Xrotation
			JOINT LeftLeg
			{
				OFFSET -0.00012 -17.42399 1.60337
				CHANNELS 3 Zrotation Yrotation Xrotation
				JOINT LeftFoot
				{
					OFFSET -0.09972 -16.50070 -1.63802
					CHANNELS 3 Zrotation Yrotation Xrotation
					JOINT LeftToes
					{
						OFFSET -0.01575 -1.73823 3.34611
						CHANNELS 3 Zrotation Yrotation Xrotation
						End Site
						{
							OFFSET 0.03150 -0.01868 3.85031
						}
					}
				}
			}
		}
	}
}
MOTION
Frames: 19
Frame Time: 0.033333
10.9240 39.2885 79.9141 -179.2400 -24.2377 173.1270 0.0000 0.0000 0.0000 6.8468 3.9699 -16.2810 0.6334 -0.7052 2.5303 13.4281 -2.9295 13.5937 0.0000 -0.0000 -0.0000 0.0000 0.0000 0.0000 -1.3589 -0.3190 9.5756 3.5330 -1.0970 0.4144 -0.0000 0.0000 -0.0000 4.1569 -6.1676 -13.5413 -0.0000 0.0000 -0.0000 -33.9735 -2.6837 2.4751 -43.2915 -15.5051 -18.5786 -9.7862 5.0218 51.8966 15.1300 -3.4839 -1.1307 -0.0000 0.0000 -0.0000 34.9286 5.1845 3.5579 37.4235 5.3574 -17.6448 10.3365 0.4169 23.6663 -12.4452 0.1115 -0.5877 0.0000 0.0000 0.0000 -2.7756 1.9302 1.3111 -4.9626 -6.9485 13.8931 10.1239 -0.2691 -7.7757 0.0000 0.0000 -0.0000
10.7348 39.2497 79.8362 -179.3190 -25.4270 173.1420 0.0000 0.0000 0.0000 7.6967 4.0749 -17.1025 0.0063 -3.8763 4.1682 13.0015 -2.8831 14.0200 0.0000 -0.0000 -0.0000 0.0000 0.0000 0.0000 -1.4547 -0.5258 9.8247 3.4594 -1.3015 0.3453 -0.0000 0.0000 -0.0000 4.3777 -5.9564 -13.5280 -0.0000 0.0000 -0.0000 -34.0708 -2.6942 2.4854 -44.0888 -15.8309 -18.2367 -9.8375 5.0143 52.1168 14.8124 -3.6507 -1.1263 -0.0000 0.0000 -0.0000 35.2194 5.2480 3.6098 37.6286 5.2307 -17.2530 10.4814 0.9387 23.1729 -12.4792 0.2561 -0.6037 0.0000 0.0000 0.0000 -3.0720 1.8527 1.4201 -5.3719 -7.8930 14.2163 10.4669 -0.2612 -7.9662 0.0000 0.0000 -0.0000
10.5151 39.2055 79.7490 -179.2780 -26.7219 173.0510 0.0000 0.0000 0.0000 8.6550 3.7644 -17.7185 -0.8334 -6.7688 6.0925 12.4765 -2.8363 14.6704 0.0000 -0.0000 -0.0000 0.0000 0.0000 0.0000 -1.3112 -0.8201 9.9777 3.3730 -1.5949 0.5445 -0.0000 0.0000 -0.0000 4.5492 -5.5873 -13.7361 -0.0000 0.0000 -0.0000 -34.3127 -2.6917 2.4997 -44.7648 -16.1761 -17.8572 -9.8789 5.0079 52.3062 14.4771 -3.5807 -1.0916 -0.0000 0.0000 -0.0000 35.2703 5.2650 3.6214 37.9612 5.4535 -17.0509 10.5314 1.0638 23.1322 -12.3322 0.5100 -0.6217 0.0000 0.0000 0.0000 -3.3148 1.7798 1.5761 -5.7944 -8.9343 14.6633 10.8950 -0.2471 -8.2308 0.0000 0.0000 -0.0000
10.2774 39.1623 79.6483 -179.2130 -28.0560 173.0470 0.0000 0.0000 0.0000 9.6047 2.9740 -18.1035 -1.3812 -7.7730 7.7064 12.3643 -2.8647 15.1659 0.0000 -0.0000 -0.0000 0.0000 0.0000 0.0000 -1.1499 -1.0578 9.9487 3.4287 -1.8604 0.8508 -0.0000 0.0000 -0.0000 4.5647 -5.5346 -14.0438 -0.0000 0.0000 -0.0000 -34.6105 -2.7090 2.5254 -45.1285 -16.6524 -17.7487 -9.7489 4.9968 52.7061 14.6813 -3.2382 -1.0664 -0.0000 0.0000 -0.0000 35.0845 5.2289 3.5900 38.4097 5.7971 -16.9937 10.5175 0.9930 23.3275 -12.0886 0.6037 -0.6184 0.0000 0.0000 0.0000 -3.5521 1.6912 1.6786 -6.2077 -9.9605 15.0912 11.3210 -0.2320 -8.4860 0.0000 0.0000 -0.0000
10.0394 39.1277 79.5282 -179.2230 -29.3095 173.2510 0.0000 0.0000 0.0000 10.5215 1.7363 -18.3180 -1.4004 -7.0324 8.7540 12.6456 -2.9544 15.3678 0.0000 -0.0000 -0.0000 0.0000 0.0000 0.0000 -1.0788 -1.1158 9.8430 3.5628 -1.9480 0.9251 -0.0000 0.0000 -0.0000 4.5241 -5.8869 -14.1780 -0.0000 0.0000 -0.0000 -34.7530 -2.7469 2.5498 -45.1326 -17.2146 -17.9425 -9.5097 4.9853 53.1546 15.4763 -2.8884 -1.0824 -0.0000 0.0000 -0.0000 34.9204 5.1877 3.5585 38.7677 5.8275 -16.9164 10.5252 1.0284 23.5367 -11.9393 0.6219 -0.6123 0.0000 0.0000 0.0000 -3.7966 1.6173 1.7214 -6.6348 -10.9258 15.3465 11.7151 -0.2216 -8.6732 0.0000 0.0000 -0.0000
9.8022 39.1050 79.3869 -179.2990 -30.4546 173.6140 0.0000 0.0000 0.0000 11.3414 0.3225 -18.2870 -1.1405 -6.1334 9.1439 12.8504 -3.0163 15.4805 0.0000 -0.0000 -0.0000 0.0000 0.0000 0.0000 -1.0477 -1.0780 9.6941 3.6450 -1.9164 0.7898 -0.0000 0.0000 -0.0000 4.5930 -6.1973 -14.0644 -0.0000 0.0000 -0.0000 -34.6586 -2.7723 2.5541 -44.9207 -17.6319 -18.0352 -9.4593 4.9859 53.1511 15.9981 -2.8747 -1.1182 -0.0000 0.0000 -0.0000 34.9526 5.1872 3.5612 38.8787 5.5511 -16.7115 10.5952 1.1831 23.7483 -11.9664 0.7229 -0.6234 0.0000 0.0000 0.0000 -4.0441 1.5526 1.7714 -7.0517 -11.8666 15.4080 12.0557 -0.2140 -8.8123 0.0000 0.0000 -0.0000
9.5577 39.0939 79.2280 -179.4120 -31.5582 174.0710 0.0000 0.0000 0.0000 11.7295 -0.5360 -17.8807 -0.7381 -5.8824 8.7682 12.6727 -2.9548 15.3165 0.0000 -0.0000 -0.0000 0.0000 0.0000 0.0000 -1.0751 -1.0875 9.3673 3.7340 -1.9411 0.7756 -0.0000 0.0000 -0.0000 4.7998 -6.1115 -13.8523 -0.0000 0.0000 -0.0000 -34.4516 -2.7755 2.5422 -44.6828 -17.7839 -17.6562 -9.7702 4.9987 52.6380 15.6207 -3.2063 -1.1332 -0.0000 0.0000 -0.0000 35.0762 5.2150 3.5835 38.7939 5.3842 -16.5175 10.6606 1.2211 23.9774 -12.0659 0.8399 -0.6400 0.0000 0.0000 0.0000 -4.3377 1.4249 1.8524 -7.3479 -12.7597 15.3154 12.2520 -0.2051 -8.9293 0.0000 0.0000 -0.0000
9.3013 39.0915 79.0516 -179.5820 -32.6411 174.6250 0.0000 0.0000 0.0000 11.3859 -0.0315 -17.1100 -0.2475 -6.3941 7.6912 11.8325 -2.6711 14.5220 0.0000 -0.0000 -0.0000 0.0000 0.0000 0.0000 -1.2326 -1.1378 8.8257 3.9510 -2.0466 0.9943 -0.0000 0.0000 -0.0000 4.9844 -5.8629 -13.7764 -0.0000 0.0000 -0.0000 -34.2825 -2.7728 2.5304 -44.5106 -17.7772 -16.9212 -10.2634 5.0098 52.0998 14.9657 -3.5061 -1.1208 -0.0000 0.0000 -0.0000 35.1082 5.2293 3.5922 38.6589 5.4919 -16.5557 10.6384 1.0678 24.1056 -12.0850 0.7913 -0.6363 0.0000 0.0000 0.0000 -4.7039 1.2297 1.9666 -7.4938 -13.5728 15.0782 12.2930 -0.1940 -9.0346 0.0000 0.0000 -0.0000
9.0273 39.0944 78.8506 -179.7960 -33.6578 175.2740 0.0000 0.0000 0.0000 10.6123 1.5591 -16.1832 -0.1688 -8.5118 6.4248 9.6867 -2.0788 13.3964 0.0000 -0.0000 -0.0000 0.0000 0.0000 0.0000 -1.4429 -1.1466 8.1873 4.2467 -2.1241 1.2521 -0.0000 0.0000 -0.0000 5.2338 -5.6812 -13.8266 -0.0000 0.0000 -0.0000 -34.1942 -2.7662 2.5220 -44.3948 -17.7571 -16.2603 -10.6542 5.0156 51.7629 14.9759 -3.4643 -1.1163 -0.0000 0.0000 -0.0000 35.0418 5.2206 3.5827 38.5256 5.5933 -16.7974 10.5503 0.9431 24.0387 -11.9979 0.6028 -0.6136 0.0000 0.0000 0.0000 -5.0661 1.0863 2.1319 -7.6371 -14.4252 14.7096 12.3426 -0.1844 -9.1276 0.0000 0.0000 -0.0000
8.7193 39.0968 78.6193 -179.9560 -34.5854 175.9910 0.0000 0.0000 0.0000 9.9942 2.8600 -15.3378 -0.8561 -12.5628 5.7310 6.2092 -1.2563 12.3288 0.0000 -0.0000 -0.0000 0.0000 0.0000 0.0000 -1.5059 -1.1214 7.4418 4.4770 -2.1418 1.4488 -0.0000 0.0000 -0.0000 5.4998 -5.6524 -13.9801 -0.0000 0.0000 -0.0000 -34.1736 -2.7519 2.5204 -44.3083 -17.7464 -15.9650 -10.8359 5.0247 51.3979 15.5680 -3.1749 -1.1253 -0.0000 0.0000 -0.0000 34.9623 5.2056 3.5695 38.3667 5.4803 -17.0080 10.4831 0.9953 23.9187 -11.9258 0.5505 -0.6048 0.0000 0.0000 0.0000 -5.3331 1.0564 2.3125 -7.8681 -15.3659 14.2825 12.5336 -0.1779 -9.2161 0.0000 0.0000 -0.0000
8.3577 39.0888 78.3602 -179.9830 -35.3811 176.7390 0.0000 0.0000 0.0000 9.5958 3.1745 -14.5950 -1.7325 -16.3094 5.8006 2.8819 -0.5236 10.7970 0.0000 -0.0000 -0.0000 0.0000 0.0000 0.0000 -1.3064 -1.1122 6.4646 4.5791 -2.1450 1.6823 -0.0000 0.0000 -0.0000 5.7281 -5.6680 -14.0550 -0.0000 0.0000 -0.0000 -34.2018 -2.7460 2.5217 -44.2780 -17.6859 -16.0395 -10.8292 5.0368 51.0084 16.0071 -2.9356 -1.1269 -0.0000 0.0000 -0.0000 34.8613 5.1890 3.5538 38.1848 5.3067 -17.1042 10.4565 1.0615 23.9779 -11.9713 0.7484 -0.6261 0.0000 0.0000 0.0000 -5.5194 1.0373 2.4720 -8.0390 -16.1062 13.8577 12.7948 -0.1638 -9.3768 0.0000 0.0000 -0.0000
7.9413 39.0732 78.0773 -179.8740 -35.9111 177.3920 0.0000 0.0000 0.0000 9.2446 3.0233 -13.7496 -1.8579 -16.6604 5.8981 0.8300 -0.1121 8.2965 0.0000 -0.0000 -0.0000 0.0000 0.0000 0.0000 -0.8866 -1.0926 5.3519 4.5876 -2.1230 1.9690 -0.0000 0.0000 -0.0000 5.9134 -5.6866 -13.8718 -0.0000 0.0000 -0.0000 -34.2440 -2.7571 2.5244 -44.3634 -17.5092 -16.3317 -10.6806 5.0415 50.9133 16.0244 -2.8415 -1.1158 -0.0000 0.0000 -0.0000 34.7054 5.1662 3.5308 37.9807 5.2559 -17.2105 10.4241 0.9501 24.1862 -12.0759 0.9140 -0.6477 0.0000 0.0000 0.0000 -5.6722 0.9505 2.7684 -7.9767 -16.4224 13.3197 12.9769 -0.1317 -9.6712 0.0000 0.0000 -0.0000
7.4890 39.0708 77.7632 -179.6190 -36.1086 177.7950 0.0000 0.0000 0.0000 9.0424 3.2199 -12.6801 -1.1093 -14.0974 5.2425 -1.1772 0.1992 5.8524 0.0000 -0.0000 -0.0000 0.0000 0.0000 0.0000 -0.3682 -1.0348 4.3425 4.6050 -2.0693 2.2118 -0.0000 0.0000 -0.0000 6.0737 -5.6920 -13.4983 -0.0000 0.0000 -0.0000 -34.2863 -2.7640 2.5268 -44.5547 -17.1676 -16.7015 -10.4697 5.0370 51.1437 15.8970 -2.7710 -1.0974 -0.0000 0.0000 -0.0000 34.5863 5.1488 3.5132 37.6797 5.2796 -17.3692 10.3857 0.7443 24.2432 -12.1195 0.8134 -0.6403 0.0000 0.0000 0.0000 -5.7397 0.8859 3.4524 -7.7176 -16.5981 12.4669 13.0016 -0.0935 -9.9923 0.0000 0.0000 -0.0000
7.0214 39.0976 77.4087 -179.1640 -36.1333 177.9510 0.0000 0.0000 0.0000 9.2238 3.8422 -11.5771 -0.3627 -12.1385 3.9700 -4.4581 0.6662 5.0471 0.0000 -0.0000 -0.0000 0.0000 0.0000 0.0000 0.1312 -1.0218 3.4172 4.7757 -2.0998 2.4077 -0.0000 0.0000 -0.0000 6.2057 -5.6341 -13.1551 -0.0000 0.0000 -0.0000 -34.3627 -2.7569 2.5291 -44.7634 -16.6726 -17.0948 -10.2697 5.0277 51.5252 15.8181 -2.6948 -1.0819 -0.0000 0.0000 -0.0000 34.6282 5.1542 3.5191 37.2328 5.2850 -17.4854 10.3862 0.6472 23.9563 -12.1266 0.6692 -0.6267 0.0000 0.0000 0.0000 -5.6050 0.9532 4.5065 -7.3701 -16.9695 11.2617 12.8159 -0.0701 -10.1709 0.0000 0.0000 -0.0000
6.5473 39.1434 77.0268 -178.4930 -36.1721 178.0330 0.0000 0.0000 0.0000 9.7478 4.2686 -10.7549 -0.0754 -12.2558 2.8940 -7.7971 1.1766 5.5019 0.0000 -0.0000 -0.0000 0.0000 0.0000 0.0000 0.5960 -1.1404 2.3999 5.1386 -2.3149 2.5851 -0.0000 0.0000 -0.0000 6.3060 -5.5122 -12.9287 -0.0000 0.0000 -0.0000 -34.4844 -2.7601 2.5381 -44.9519 -16.1139 -17.5081 -10.0643 5.0082 52.2274 15.7723 -2.7284 -1.0830 -0.0000 0.0000 -0.0000 34.7779 5.1723 3.5396 36.7802 5.3159 -17.5972 10.3950 0.6859 23.4589 -12.2029 0.7701 -0.6406 0.0000 0.0000 0.0000 -5.2277 1.1456 5.6098 -6.9615 -17.4003 9.9069 12.4208 -0.0578 -10.2431 0.0000 0.0000 -0.0000
6.0695 39.1879 76.6554 -177.6820 -36.1678 178.1470 0.0000 0.0000 0.0000 10.2293 4.2561 -10.3952 0.0890 -12.6955 2.7494 -9.0384 1.3460 5.3066 0.0000 -0.0000 -0.0000 0.0000 0.0000 0.0000 1.1552 -1.3303 1.4124 5.5265 -2.6149 2.6087 -0.0000 0.0000 -0.0000 6.3933 -5.4006 -12.8098 -0.0000 0.0000 -0.0000 -34.5874 -2.7888 2.5563 -45.1962 -15.5911 -17.9185 -9.7949 4.9726 53.4474 15.7000 -2.8890 -1.0985 -0.0000 0.0000 -0.0000 34.8301 5.1712 3.5438 36.5785 5.4347 -17.8839 10.3138 0.7823 22.9912 -12.3133 0.9916 -0.6683 0.0000 0.0000 0.0000 -4.7129 1.3962 6.5046 -6.5736 -17.6930 8.6700 12.0145 -0.0463 -10.3108 0.0000 0.0000 -0.0000
5.5939 39.2245 76.3251 -176.8880 -35.9671 178.2850 0.0000 0.0000 0.0000 10.4203 3.9779 -10.3897 0.4771 -11.8566 3.4454 -8.0916 1.1003 3.8854 0.0000 -0.0000 -0.0000 0.0000 0.0000 0.0000 1.8722 -1.4732 0.7638 5.7676 -2.8342 2.3563 -0.0000 0.0000 -0.0000 6.4999 -5.3372 -12.9132 -0.0000 0.0000 -0.0000 -34.5948 -2.8269 2.5722 -45.5653 -15.1778 -18.2555 -9.5035 4.9356 54.6893 15.4712 -3.0362 -1.1006 -0.0000 0.0000 -0.0000 34.6960 5.1413 3.5198 36.7110 5.6089 -18.2761 10.1554 1.0124 22.5655 -12.3185 1.0897 -0.6783 0.0000 0.0000 0.0000 -4.2555 1.6448 7.1391 -6.3587 -17.9441 7.7764 11.6869 -0.0514 -10.2368 0.0000 0.0000 -0.0000
5.1344 39.2598 76.0313 -176.3290 -35.6439 178.5180 0.0000 0.0000 0.0000 10.3472 3.5071 -10.4670 1.0752 -10.3225 4.2236 -6.8343 0.8334 2.4096 0.0000 -0.0000 -0.0000 0.0000 0.0000 0.0000 2.4808 -1.5736 0.4238 5.9322 -2.9843 2.0015 -0.0000 0.0000 -0.0000 6.6673 -5.2806 -13.3634 -0.0000 0.0000 -0.0000 -34.4980 -2.8649 2.5814 -45.9886 -14.9820 -18.3915 -9.3441 4.9194 55.2352 15.0426 -3.1025 -1.0772 -0.0000 0.0000 -0.0000 34.5244 5.1131 3.4933 36.9899 5.7970 -18.3925 10.0789 1.5341 22.0315 -12.1426 1.1285 -0.6722 0.0000 0.0000 0.0000 -3.9932 1.8678 7.4948 -6.3413 -18.0468 7.3572 10.7050 -0.0712 -9.9298 0.0000 0.0000 -0.0000
4.7098 39.3061 75.7502 -176.2040 -35.4211 179.0080 0.0000 0.0000 0.0000 10.0413 2.9467 -10.4584 1.5908 -9.3113 4.6013 -6.5014 0.7475 1.6557 0.0000 -0.0000 -0.0000 0.0000 0.0000 0.0000 2.5850 -1.7053 0.0796 6.1961 -3.1719 1.8025 -0.0000 0.0000 -0.0000 6.8655 -5.2876 -14.0813 -0.0000 0.0000 -0.0000 -34.3553 -2.9181 2.5936 -46.2801 -15.1537 -18.1689 -9.4254 4.9168 55.2849 14.6888 -3.1795 -1.0601 -0.0000 0.0000 -0.0000 34.4935 5.1154 3.4916 37.2270 6.0143 -18.0671 10.1574 2.2783 21.4992 -11.8320 1.2414 -0.6653 0.0000 0.0000 0.0000 -3.8751 2.2020 7.5811 -6.4719 -17.8210 7.3084 7.6188 -0.0431 -9.8144 0.0000 0.0000 -0.0000
